<svg xmlns="http://www.w3.org/2000/svg" xmlns:xlink="http://www.w3.org/1999/xlink" xmlns:lucid="lucid" width="1309.08" height="1662"><g transform="translate(261 141)" lucid:page-tab-id="0_0"><path d="M-500-500h2000v2000H-500z" fill="#fff"/><path d="M200-114a6 6 0 0 1 6-6h388a6 6 0 0 1 6 6v1608a6 6 0 0 1-6 6H206a6 6 0 0 1-6-6z" stroke="#282c33" stroke-width="2" fill="#f2f3f5"/><path d="M260-94a6 6 0 0 1 6-6h74.28a6 6 0 0 1 6 6v27.55a6 6 0 0 1-6 6H266a6 6 0 0 1-6-6z" stroke="#000" stroke-opacity="0" stroke-width="2" fill="#f2f3f5"/><use xlink:href="#a" transform="matrix(1,0,0,1,265,-95) translate(8.203703703703695 23.208333333333336)"/><path d="M282.07-14a6 6 0 0 1 6-6h219.4a6 6 0 0 1 6 6v68a6 6 0 0 1-6 6h-219.4a6 6 0 0 1-6-6z" stroke="#b5d6ff" stroke-width="2" fill="#cfe4ff"/><use xlink:href="#b" transform="matrix(1,0,0,1,294.07381528862567,-7.999999999999993) translate(24.1111111111111 31.833333333333336)"/><path d="M282.07 126a6 6 0 0 1 6-6h219.4a6 6 0 0 1 6 6v68a6 6 0 0 1-6 6h-219.4a6 6 0 0 1-6-6z" stroke="#8ee895" stroke-width="2" fill="#c3f7c8"/><use xlink:href="#c" transform="matrix(1,0,0,1,294.07381528862567,132) translate(25.666666666666657 31.833333333333336)"/><path d="M397.78 62v38.5" stroke="#5e5e5e" stroke-width="2" fill="none"/><path d="M398.75 62.03h-1.95V61h1.95z" stroke="#5e5e5e" stroke-width=".05" fill="#5e5e5e"/><path d="M397.78 115.76l-4.64-14.26h9.27z" stroke="#5e5e5e" stroke-width="2" fill="#5e5e5e"/><path d="M282.07 266a6 6 0 0 1 6-6h219.4a6 6 0 0 1 6 6v68a6 6 0 0 1-6 6h-219.4a6 6 0 0 1-6-6z" stroke="#b5d6ff" stroke-width="2" fill="#cfe4ff"/><use xlink:href="#d" transform="matrix(1,0,0,1,294.07381528862567,272) translate(42.59259259259258 31.833333333333336)"/><path d="M282.07 406a6 6 0 0 1 6-6h219.4a6 6 0 0 1 6 6v68a6 6 0 0 1-6 6h-219.4a6 6 0 0 1-6-6z" stroke="#8ee895" stroke-width="2" fill="#c3f7c8"/><use xlink:href="#e" transform="matrix(1,0,0,1,294.07381528862567,412) translate(34.48148148148147 31.833333333333336)"/><path d="M397.78 202v38.5" stroke="#5e5e5e" stroke-width="2" fill="none"/><path d="M398.75 202.03h-1.95V201h1.95z" stroke="#5e5e5e" stroke-width=".05" fill="#5e5e5e"/><path d="M397.78 255.76l-4.64-14.26h9.27z" stroke="#5e5e5e" stroke-width="2" fill="#5e5e5e"/><path d="M397.78 342v38.5" stroke="#5e5e5e" stroke-width="2" fill="none"/><path d="M398.75 342.03h-1.95V341h1.95z" stroke="#5e5e5e" stroke-width=".05" fill="#5e5e5e"/><path d="M397.78 395.76l-4.64-14.26h9.27z" stroke="#5e5e5e" stroke-width="2" fill="#5e5e5e"/><path d="M282.07 546a6 6 0 0 1 6-6h219.4a6 6 0 0 1 6 6v68a6 6 0 0 1-6 6h-219.4a6 6 0 0 1-6-6z" stroke="#b5d6ff" stroke-width="2" fill="#cfe4ff"/><use xlink:href="#f" transform="matrix(1,0,0,1,294.07381528862567,552) translate(29.33333333333333 21.333333333333336)"/><use xlink:href="#g" transform="matrix(1,0,0,1,294.07381528862567,552) translate(61.14814814814814 53.333333333333336)"/><path d="M397.78 482v38.5" stroke="#5e5e5e" stroke-width="2" fill="none"/><path d="M398.75 482.03h-1.95V481h1.95z" stroke="#5e5e5e" stroke-width=".05" fill="#5e5e5e"/><path d="M397.78 535.76l-4.64-14.26h9.27z" stroke="#5e5e5e" stroke-width="2" fill="#5e5e5e"/><path d="M282.07 686a6 6 0 0 1 6-6h219.4a6 6 0 0 1 6 6v68a6 6 0 0 1-6 6h-219.4a6 6 0 0 1-6-6z" stroke="#8ee895" stroke-width="2" fill="#c3f7c8"/><use xlink:href="#h" transform="matrix(1,0,0,1,294.07381528862567,692) translate(58.96296296296296 31.833333333333336)"/><path d="M397.78 622v38.5" stroke="#5e5e5e" stroke-width="2" fill="none"/><path d="M398.75 622.03h-1.95V621h1.95z" stroke="#5e5e5e" stroke-width=".05" fill="#5e5e5e"/><path d="M397.78 675.76l-4.64-14.26h9.27z" stroke="#5e5e5e" stroke-width="2" fill="#5e5e5e"/><path d="M-240 586a6 6 0 0 1 6-6H69.55a6 6 0 0 1 6 6v908a6 6 0 0 1-6 6H-234a6 6 0 0 1-6-6z" stroke="#282c33" stroke-width="2" fill="#f2f3f5"/><path d="M-218.96 606a6 6 0 0 1 6-6h156.3a6 6 0 0 1 6 6v40.5a6 6 0 0 1-6 6h-156.3a6 6 0 0 1-6-6z" stroke="#000" stroke-opacity="0" stroke-width="2" fill="#f2f3f5"/><use xlink:href="#i" transform="matrix(1,0,0,1,-213.9630923556872,605) translate(8.462962962962948 26.708333333333336)"/><use xlink:href="#j" transform="matrix(1,0,0,1,-213.9630923556872,605) translate(135.72222222222223 26.708333333333336)"/><path d="M280.07 720H52.97" stroke="#5e5e5e" stroke-width="2" fill="none"/><path d="M281.07 720.98h-1.02V719h1.02z" stroke="#5e5e5e" stroke-width=".05" fill="#5e5e5e"/><path d="M37.72 720l14.26-4.63v9.26z" stroke="#5e5e5e" stroke-width="2" fill="#5e5e5e"/><path d="M-197.93 686a6 6 0 0 1 6-6h219.4a6 6 0 0 1 6 6v68a6 6 0 0 1-6 6h-219.4a6 6 0 0 1-6-6z" stroke="#b5d6ff" stroke-width="2" fill="#cfe4ff"/><use xlink:href="#k" transform="matrix(1,0,0,1,-185.92618471137433,692) translate(38.185185185185176 31.833333333333336)"/><path d="M-197.93 826a6 6 0 0 1 6-6h219.4a6 6 0 0 1 6 6v68a6 6 0 0 1-6 6h-219.4a6 6 0 0 1-6-6z" stroke="#8ee895" stroke-width="2" fill="#c3f7c8"/><use xlink:href="#l" transform="matrix(1,0,0,1,-185.92618471137428,832) translate(76.66666666666666 31.833333333333336)"/><path d="M-82.22 762v38.5" stroke="#5e5e5e" stroke-width="2" fill="none"/><path d="M-81.25 762.03h-1.95V761h1.95z" stroke="#5e5e5e" stroke-width=".05" fill="#5e5e5e"/><path d="M-82.22 815.76l-4.64-14.26h9.27z" stroke="#5e5e5e" stroke-width="2" fill="#5e5e5e"/><path d="M-197.93 966a6 6 0 0 1 6-6h219.4a6 6 0 0 1 6 6v68a6 6 0 0 1-6 6h-219.4a6 6 0 0 1-6-6z" stroke="#b5d6ff" stroke-width="2" fill="#cfe4ff"/><use xlink:href="#m" transform="matrix(1,0,0,1,-185.92618471137428,972) translate(38.999999999999986 31.833333333333336)"/><path d="M-82.22 902v38.5" stroke="#5e5e5e" stroke-width="2" fill="none"/><path d="M-81.25 902.03h-1.95V901h1.95z" stroke="#5e5e5e" stroke-width=".05" fill="#5e5e5e"/><path d="M-82.22 955.76l-4.64-14.26h9.27z" stroke="#5e5e5e" stroke-width="2" fill="#5e5e5e"/><path d="M-197.93 1106a6 6 0 0 1 6-6h219.4a6 6 0 0 1 6 6v68a6 6 0 0 1-6 6h-219.4a6 6 0 0 1-6-6z" stroke="#8ee895" stroke-width="2" fill="#c3f7c8"/><use xlink:href="#l" transform="matrix(1,0,0,1,-185.92618471137428,1112) translate(76.66666666666666 31.833333333333336)"/><path d="M-82.22 1042v38.5" stroke="#5e5e5e" stroke-width="2" fill="none"/><path d="M-81.25 1042.03h-1.95V1041h1.95z" stroke="#5e5e5e" stroke-width=".05" fill="#5e5e5e"/><path d="M-82.22 1095.76l-4.64-14.26h9.27z" stroke="#5e5e5e" stroke-width="2" fill="#5e5e5e"/><path d="M-197.93 1386a6 6 0 0 1 6-6h219.4a6 6 0 0 1 6 6v68a6 6 0 0 1-6 6h-219.4a6 6 0 0 1-6-6z" stroke="#8ee895" stroke-width="2" fill="#c3f7c8"/><use xlink:href="#l" transform="matrix(1,0,0,1,-185.92618471137428,1392) translate(76.66666666666666 31.833333333333336)"/><path d="M-197.93 1246a6 6 0 0 1 6-6h219.4a6 6 0 0 1 6 6v68a6 6 0 0 1-6 6h-219.4a6 6 0 0 1-6-6z" stroke="#b5d6ff" stroke-width="2" fill="#cfe4ff"/><use xlink:href="#m" transform="matrix(1,0,0,1,-185.92618471137433,1252) translate(38.999999999999986 31.833333333333336)"/><path d="M-82.22 1182v38.5" stroke="#5e5e5e" stroke-width="2" fill="none"/><path d="M-81.25 1182.03h-1.95V1181h1.95z" stroke="#5e5e5e" stroke-width=".05" fill="#5e5e5e"/><path d="M-82.22 1235.76l-4.64-14.26h9.27z" stroke="#5e5e5e" stroke-width="2" fill="#5e5e5e"/><path d="M-82.22 1322v38.5" stroke="#5e5e5e" stroke-width="2" fill="none"/><path d="M-81.25 1322.03h-1.95V1321h1.95z" stroke="#5e5e5e" stroke-width=".05" fill="#5e5e5e"/><path d="M-82.22 1375.76l-4.64-14.26h9.27z" stroke="#5e5e5e" stroke-width="2" fill="#5e5e5e"/><path d="M711.52 586a6 6 0 0 1 6-6h303.56a6 6 0 0 1 6 6v908a6 6 0 0 1-6 6H717.52a6 6 0 0 1-6-6z" stroke="#282c33" stroke-width="2" fill="#f2f3f5"/><path d="M727.08 606a6 6 0 0 1 6-6h156.3a6 6 0 0 1 6 6v40.5a6 6 0 0 1-6 6h-156.3a6 6 0 0 1-6-6z" stroke="#000" stroke-opacity="0" stroke-width="2" fill="#f2f3f5"/><use xlink:href="#i" transform="matrix(1,0,0,1,732.0762884130933,605) translate(8.462962962962948 26.708333333333336)"/><use xlink:href="#n" transform="matrix(1,0,0,1,732.0762884130933,605) translate(135.72222222222223 26.708333333333336)"/><path d="M753.6 686a6 6 0 0 1 6-6H979a6 6 0 0 1 6 6v68a6 6 0 0 1-6 6H759.6a6 6 0 0 1-6-6z" stroke="#b5d6ff" stroke-width="2" fill="#cfe4ff"/><use xlink:href="#k" transform="matrix(1,0,0,1,765.5964890370265,692) translate(38.185185185185176 31.833333333333336)"/><path d="M753.6 826a6 6 0 0 1 6-6H979a6 6 0 0 1 6 6v68a6 6 0 0 1-6 6H759.6a6 6 0 0 1-6-6z" stroke="#8ee895" stroke-width="2" fill="#c3f7c8"/><use xlink:href="#l" transform="matrix(1,0,0,1,765.5964890370265,832) translate(76.66666666666666 31.833333333333336)"/><path d="M753.6 966a6 6 0 0 1 6-6H979a6 6 0 0 1 6 6v68a6 6 0 0 1-6 6H759.6a6 6 0 0 1-6-6z" stroke="#b5d6ff" stroke-width="2" fill="#cfe4ff"/><use xlink:href="#m" transform="matrix(1,0,0,1,765.5964890370265,972) translate(38.999999999999986 31.833333333333336)"/><path d="M753.6 1106a6 6 0 0 1 6-6H979a6 6 0 0 1 6 6v68a6 6 0 0 1-6 6H759.6a6 6 0 0 1-6-6z" stroke="#8ee895" stroke-width="2" fill="#c3f7c8"/><use xlink:href="#l" transform="matrix(1,0,0,1,765.5964890370265,1112) translate(76.66666666666666 31.833333333333336)"/><path d="M753.6 1386a6 6 0 0 1 6-6H979a6 6 0 0 1 6 6v68a6 6 0 0 1-6 6H759.6a6 6 0 0 1-6-6z" stroke="#8ee895" stroke-width="2" fill="#c3f7c8"/><use xlink:href="#l" transform="matrix(1,0,0,1,765.5964890370265,1392) translate(76.66666666666666 31.833333333333336)"/><path d="M753.6 1246a6 6 0 0 1 6-6H979a6 6 0 0 1 6 6v68a6 6 0 0 1-6 6H759.6a6 6 0 0 1-6-6z" stroke="#b5d6ff" stroke-width="2" fill="#cfe4ff"/><use xlink:href="#m" transform="matrix(1,0,0,1,765.5964890370265,1252) translate(38.999999999999986 31.833333333333336)"/><path d="M515.48 720H734.1" stroke="#5e5e5e" stroke-width="2" fill="none"/><path d="M515.5 720.98h-1.02V719h1.02z" stroke="#5e5e5e" stroke-width=".05" fill="#5e5e5e"/><path d="M749.36 720l-14.26 4.63v-9.26z" stroke="#5e5e5e" stroke-width="2" fill="#5e5e5e"/><path d="M869.3 762v38.5" stroke="#5e5e5e" stroke-width="2" fill="none"/><path d="M870.27 762.03h-1.95V761h1.95z" stroke="#5e5e5e" stroke-width=".05" fill="#5e5e5e"/><path d="M869.3 815.76l-4.64-14.26h9.27z" stroke="#5e5e5e" stroke-width="2" fill="#5e5e5e"/><path d="M869.3 902v38.5" stroke="#5e5e5e" stroke-width="2" fill="none"/><path d="M870.27 902.03h-1.95V901h1.95z" stroke="#5e5e5e" stroke-width=".05" fill="#5e5e5e"/><path d="M869.3 955.76l-4.64-14.26h9.27z" stroke="#5e5e5e" stroke-width="2" fill="#5e5e5e"/><path d="M869.3 1042v38.5" stroke="#5e5e5e" stroke-width="2" fill="none"/><path d="M870.27 1042.03h-1.95V1041h1.95z" stroke="#5e5e5e" stroke-width=".05" fill="#5e5e5e"/><path d="M869.3 1095.76l-4.64-14.26h9.27z" stroke="#5e5e5e" stroke-width="2" fill="#5e5e5e"/><path d="M869.3 1182v38.5" stroke="#5e5e5e" stroke-width="2" fill="none"/><path d="M870.27 1182.03h-1.95V1181h1.95z" stroke="#5e5e5e" stroke-width=".05" fill="#5e5e5e"/><path d="M869.3 1235.76l-4.64-14.26h9.27z" stroke="#5e5e5e" stroke-width="2" fill="#5e5e5e"/><path d="M869.3 1322v38.5" stroke="#5e5e5e" stroke-width="2" fill="none"/><path d="M870.27 1322.03h-1.95V1321h1.95z" stroke="#5e5e5e" stroke-width=".05" fill="#5e5e5e"/><path d="M869.3 1375.76l-4.64-14.26h9.27z" stroke="#5e5e5e" stroke-width="2" fill="#5e5e5e"/><path d="M282.07 1386a6 6 0 0 1 6-6h219.4a6 6 0 0 1 6 6v68a6 6 0 0 1-6 6h-219.4a6 6 0 0 1-6-6z" stroke="#b5d6ff" stroke-width="2" fill="#cfe4ff"/><use xlink:href="#o" transform="matrix(1,0,0,1,294.0738152886257,1392) translate(38.18518518518516 31.833333333333336)"/><path d="M35.48 1420h227.1" stroke="#5e5e5e" stroke-width="2" fill="none"/><path d="M35.5 1420.97h-1.02v-1.94h1.03z" stroke="#5e5e5e" stroke-width=".05" fill="#5e5e5e"/><path d="M277.84 1420l-14.27 4.63v-9.27z" stroke="#5e5e5e" stroke-width="2" fill="#5e5e5e"/><path d="M751.6 1420H532.98" stroke="#5e5e5e" stroke-width="2" fill="none"/><path d="M752.6 1420.97h-1.03v-1.94h1.03z" stroke="#5e5e5e" stroke-width=".05" fill="#5e5e5e"/><path d="M517.72 1420l14.26-4.63v9.27z" stroke="#5e5e5e" stroke-width="2" fill="#5e5e5e"/><path d="M280.07 160h-33a6 6 0 0 0-6 6v869a6 6 0 0 0 6 6h144.7a6 6 0 0 1 6 6v313.5" stroke="#5e5e5e" stroke-width="2" fill="none"/><path d="M281.07 160.97h-1.02v-1.94h1.02z" stroke="#5e5e5e" stroke-width=".05" fill="#5e5e5e"/><path d="M397.78 1375.76l-4.64-14.26h9.27z" stroke="#5e5e5e" stroke-width="2" fill="#5e5e5e"/><path d="M463 1378v-33a6 6 0 0 1 6-6h79.48a6 6 0 0 0 6-6V166a6 6 0 0 0-6-6h-15.5" stroke="#5e5e5e" stroke-width="2" fill="none"/><path d="M463.98 1379h-1.96v-1.03h1.96z" stroke="#5e5e5e" stroke-width=".05" fill="#5e5e5e"/><path d="M517.72 160l14.26-4.63v9.26z" stroke="#5e5e5e" stroke-width="2" fill="#5e5e5e"/><path d="M280.07 141.27H-2.23a6 6 0 0 0-6 6V660.5" stroke="#5e5e5e" stroke-width="2" fill="none"/><path d="M281.07 142.25h-1.02v-1.95h1.02z" stroke="#5e5e5e" stroke-width=".05" fill="#5e5e5e"/><path d="M-8.23 675.76l-4.63-14.26h9.27z" stroke="#5e5e5e" stroke-width="2" fill="#5e5e5e"/><path d="M515.48 133.4h436.3a6 6 0 0 1 6 6v521.1" stroke="#5e5e5e" stroke-width="2" fill="none"/><path d="M515.5 134.38h-1.02v-1.95h1.02z" stroke="#5e5e5e" stroke-width=".05" fill="#5e5e5e"/><path d="M957.78 675.76l-4.64-14.26h9.27z" stroke="#5e5e5e" stroke-width="2" fill="#5e5e5e"/><defs><path fill="#282c33" d="M230 0l2-204L168 0h-37L68-204 70 0H24v-248h70l56 185 57-185h69V0h-46" id="p"/><path fill="#282c33" d="M133-34C117-15 103 5 69 4 32 3 11-16 11-54c-1-60 55-63 116-61 1-26-3-47-28-47-18 1-26 9-28 27l-52-2c7-38 36-58 82-57s74 22 75 68l1 82c-1 14 12 18 25 15v27c-30 8-71 5-69-32zm-48 3c29 0 43-24 42-57-32 0-66-3-65 30 0 17 8 27 23 27" id="q"/><path fill="#282c33" d="M25-224v-37h50v37H25zM25 0v-190h50V0H25" id="r"/><path fill="#282c33" d="M135-194c87-1 58 113 63 194h-50c-7-57 23-157-34-157-59 0-34 97-39 157H25l-1-190h47c2 12-1 28 3 38 12-26 28-41 61-42" id="s"/><g id="a"><use transform="matrix(0.07407407407407408,0,0,0.07407407407407408,0,0)" xlink:href="#p"/><use transform="matrix(0.07407407407407408,0,0,0.07407407407407408,22.148148148148152,0)" xlink:href="#q"/><use transform="matrix(0.07407407407407408,0,0,0.07407407407407408,36.96296296296297,0)" xlink:href="#r"/><use transform="matrix(0.07407407407407408,0,0,0.07407407407407408,44.37037037037039,0)" xlink:href="#s"/></g><path fill="#282c33" d="M67-125c0 54 23 88 75 88 28 0 53-7 68-21v-34h-60v-39h108v91C232-14 192 4 140 4 58 4 20-42 15-125 8-236 126-280 215-234c19 10 29 26 37 47l-47 15c-11-23-29-39-63-39-53 1-75 33-75 86" id="t"/><path fill="#282c33" d="M185-48c-13 30-37 53-82 52C43 2 14-33 14-96s30-98 90-98c62 0 83 45 84 108H66c0 31 8 55 39 56 18 0 30-7 34-22zm-45-69c5-46-57-63-70-21-2 6-4 13-4 21h74" id="u"/><path fill="#282c33" d="M135-150c-39-12-60 13-60 57V0H25l-1-190h47c2 13-1 29 3 40 6-28 27-53 61-41v41" id="v"/><path fill="#282c33" d="M12 0v-35l95-120H19v-35h142v35L67-36h103V0H12" id="w"/><path fill="#282c33" d="M110-194c64 0 96 36 96 99 0 64-35 99-97 99-61 0-95-36-95-99 0-62 34-99 96-99zm-1 164c35 0 45-28 45-65 0-40-10-65-43-65-34 0-45 26-45 65 0 36 10 65 43 65" id="x"/><g id="b"><use transform="matrix(0.07407407407407408,0,0,0.07407407407407408,0,0)" xlink:href="#t"/><use transform="matrix(0.07407407407407408,0,0,0.07407407407407408,20.740740740740744,0)" xlink:href="#u"/><use transform="matrix(0.07407407407407408,0,0,0.07407407407407408,35.55555555555556,0)" xlink:href="#s"/><use transform="matrix(0.07407407407407408,0,0,0.07407407407407408,51.777777777777786,0)" xlink:href="#u"/><use transform="matrix(0.07407407407407408,0,0,0.07407407407407408,66.59259259259261,0)" xlink:href="#v"/><use transform="matrix(0.07407407407407408,0,0,0.07407407407407408,76.96296296296298,0)" xlink:href="#q"/><use transform="matrix(0.07407407407407408,0,0,0.07407407407407408,91.7777777777778,0)" xlink:href="#w"/><use transform="matrix(0.07407407407407408,0,0,0.07407407407407408,105.11111111111114,0)" xlink:href="#r"/><use transform="matrix(0.07407407407407408,0,0,0.07407407407407408,112.51851851851855,0)" xlink:href="#x"/><use transform="matrix(0.07407407407407408,0,0,0.07407407407407408,128.74074074074076,0)" xlink:href="#s"/><use transform="matrix(0.07407407407407408,0,0,0.07407407407407408,144.962962962963,0)" xlink:href="#u"/></g><path fill="#282c33" d="M24-248c93 1 206-16 204 79-1 75-69 88-152 82V0H24v-248zm52 121c47 0 100 7 100-41 0-47-54-39-100-39v80" id="y"/><path fill="#282c33" d="M135-194c53 0 70 44 70 98 0 56-19 98-73 100-31 1-45-17-59-34 3 33 2 69 2 105H25l-1-265h48c2 10 0 23 3 31 11-24 29-35 60-35zM114-30c33 0 39-31 40-66 0-38-9-64-40-64-56 0-55 130 0 130" id="z"/><path fill="#282c33" d="M25 0v-261h50V0H25" id="A"/><g id="c"><use transform="matrix(0.07407407407407408,0,0,0.07407407407407408,0,0)" xlink:href="#y"/><use transform="matrix(0.07407407407407408,0,0,0.07407407407407408,17.77777777777778,0)" xlink:href="#x"/><use transform="matrix(0.07407407407407408,0,0,0.07407407407407408,34,0)" xlink:href="#z"/><use transform="matrix(0.07407407407407408,0,0,0.07407407407407408,50.22222222222223,0)" xlink:href="#x"/><use transform="matrix(0.07407407407407408,0,0,0.07407407407407408,66.44444444444446,0)" xlink:href="#A"/><use transform="matrix(0.07407407407407408,0,0,0.07407407407407408,73.85185185185186,0)" xlink:href="#q"/><use transform="matrix(0.07407407407407408,0,0,0.07407407407407408,88.66666666666667,0)" xlink:href="#w"/><use transform="matrix(0.07407407407407408,0,0,0.07407407407407408,102.00000000000003,0)" xlink:href="#r"/><use transform="matrix(0.07407407407407408,0,0,0.07407407407407408,109.40740740740743,0)" xlink:href="#x"/><use transform="matrix(0.07407407407407408,0,0,0.07407407407407408,125.62962962962966,0)" xlink:href="#s"/><use transform="matrix(0.07407407407407408,0,0,0.07407407407407408,141.85185185185188,0)" xlink:href="#u"/></g><path fill="#282c33" d="M169-182c-1-43-94-46-97-3 18 66 151 10 154 114 3 95-165 93-204 36-6-8-10-19-12-30l50-8c3 46 112 56 116 5-17-69-150-10-154-114-4-87 153-88 188-35 5 8 8 18 10 28" id="B"/><g id="d"><use transform="matrix(0.07407407407407408,0,0,0.07407407407407408,0,0)" xlink:href="#B"/><use transform="matrix(0.07407407407407408,0,0,0.07407407407407408,17.77777777777778,0)" xlink:href="#u"/><use transform="matrix(0.07407407407407408,0,0,0.07407407407407408,32.592592592592595,0)" xlink:href="#A"/><use transform="matrix(0.07407407407407408,0,0,0.07407407407407408,40,0)" xlink:href="#u"/><use transform="matrix(0.07407407407407408,0,0,0.07407407407407408,54.81481481481482,0)" xlink:href="#w"/><use transform="matrix(0.07407407407407408,0,0,0.07407407407407408,68.14814814814815,0)" xlink:href="#r"/><use transform="matrix(0.07407407407407408,0,0,0.07407407407407408,75.55555555555556,0)" xlink:href="#x"/><use transform="matrix(0.07407407407407408,0,0,0.07407407407407408,91.77777777777779,0)" xlink:href="#s"/><use transform="matrix(0.07407407407407408,0,0,0.07407407407407408,108.00000000000001,0)" xlink:href="#u"/></g><path fill="#282c33" d="M115-3C79 11 28 4 28-45v-112H4v-33h27l15-45h31v45h36v33H77v99c-1 23 16 31 38 25v30" id="C"/><g id="e"><use transform="matrix(0.07407407407407408,0,0,0.07407407407407408,0,0)" xlink:href="#B"/><use transform="matrix(0.07407407407407408,0,0,0.07407407407407408,17.77777777777778,0)" xlink:href="#u"/><use transform="matrix(0.07407407407407408,0,0,0.07407407407407408,32.592592592592595,0)" xlink:href="#A"/><use transform="matrix(0.07407407407407408,0,0,0.07407407407407408,40,0)" xlink:href="#u"/><use transform="matrix(0.07407407407407408,0,0,0.07407407407407408,54.81481481481482,0)" xlink:href="#w"/><use transform="matrix(0.07407407407407408,0,0,0.07407407407407408,68.14814814814815,0)" xlink:href="#r"/><use transform="matrix(0.07407407407407408,0,0,0.07407407407407408,75.55555555555556,0)" xlink:href="#x"/><use transform="matrix(0.07407407407407408,0,0,0.07407407407407408,91.77777777777779,0)" xlink:href="#s"/><use transform="matrix(0.07407407407407408,0,0,0.07407407407407408,108.00000000000001,0)" xlink:href="#q"/><use transform="matrix(0.07407407407407408,0,0,0.07407407407407408,122.81481481481484,0)" xlink:href="#C"/><use transform="matrix(0.07407407407407408,0,0,0.07407407407407408,131.62962962962965,0)" xlink:href="#r"/></g><path fill="#282c33" d="M76-208v77h127v40H76V0H24v-248h183v40H76" id="D"/><path fill="#282c33" d="M220-157c-53 9-28 100-34 157h-49v-107c1-27-5-49-29-50C55-147 81-57 75 0H25l-1-190h47c2 12-1 28 3 38 10-53 101-56 108 0 13-22 24-43 59-42 82 1 51 116 57 194h-49v-107c-1-25-5-48-29-50" id="E"/><g id="f"><use transform="matrix(0.07407407407407408,0,0,0.07407407407407408,0,0)" xlink:href="#D"/><use transform="matrix(0.07407407407407408,0,0,0.07407407407407408,16.222222222222225,0)" xlink:href="#x"/><use transform="matrix(0.07407407407407408,0,0,0.07407407407407408,32.44444444444445,0)" xlink:href="#v"/><use transform="matrix(0.07407407407407408,0,0,0.07407407407407408,42.814814814814824,0)" xlink:href="#E"/><use transform="matrix(0.07407407407407408,0,0,0.07407407407407408,66.51851851851853,0)" xlink:href="#q"/><use transform="matrix(0.07407407407407408,0,0,0.07407407407407408,81.33333333333334,0)" xlink:href="#w"/><use transform="matrix(0.07407407407407408,0,0,0.07407407407407408,94.66666666666669,0)" xlink:href="#r"/><use transform="matrix(0.07407407407407408,0,0,0.07407407407407408,102.07407407407409,0)" xlink:href="#x"/><use transform="matrix(0.07407407407407408,0,0,0.07407407407407408,118.29629629629632,0)" xlink:href="#s"/><use transform="matrix(0.07407407407407408,0,0,0.07407407407407408,134.51851851851853,0)" xlink:href="#u"/></g><path fill="#282c33" d="M190-63c-7 42-38 67-86 67-59 0-84-38-90-98-12-110 154-137 174-36l-49 2c-2-19-15-32-35-32-30 0-35 28-38 64-6 74 65 87 74 30" id="F"/><g id="g"><use transform="matrix(0.07407407407407408,0,0,0.07407407407407408,0,0)" xlink:href="#F"/><use transform="matrix(0.07407407407407408,0,0,0.07407407407407408,14.814814814814817,0)" xlink:href="#x"/><use transform="matrix(0.07407407407407408,0,0,0.07407407407407408,31.03703703703704,0)" xlink:href="#z"/><use transform="matrix(0.07407407407407408,0,0,0.07407407407407408,47.25925925925927,0)" xlink:href="#z"/><use transform="matrix(0.07407407407407408,0,0,0.07407407407407408,63.481481481481495,0)" xlink:href="#r"/><use transform="matrix(0.07407407407407408,0,0,0.07407407407407408,70.8888888888889,0)" xlink:href="#u"/></g><path fill="#282c33" d="M67-125c0 53 21 87 73 88 37 1 54-22 65-47l45 17C233-25 199 4 140 4 58 4 20-42 15-125 8-235 124-281 211-232c18 10 29 29 36 50l-46 12c-8-25-30-41-62-41-52 0-71 34-72 86" id="G"/><g id="h"><use transform="matrix(0.07407407407407408,0,0,0.07407407407407408,0,0)" xlink:href="#G"/><use transform="matrix(0.07407407407407408,0,0,0.07407407407407408,19.185185185185187,0)" xlink:href="#x"/><use transform="matrix(0.07407407407407408,0,0,0.07407407407407408,35.40740740740741,0)" xlink:href="#z"/><use transform="matrix(0.07407407407407408,0,0,0.07407407407407408,51.62962962962963,0)" xlink:href="#z"/><use transform="matrix(0.07407407407407408,0,0,0.07407407407407408,67.85185185185186,0)" xlink:href="#r"/><use transform="matrix(0.07407407407407408,0,0,0.07407407407407408,75.25925925925927,0)" xlink:href="#u"/></g><path fill="#282c33" d="M137-138c1-29-70-34-71-4 15 46 118 7 119 86 1 83-164 76-172 9l43-7c4 19 20 25 44 25 33 8 57-30 24-41C81-84 22-81 20-136c-2-80 154-74 161-7" id="H"/><g id="i"><use transform="matrix(0.07407407407407408,0,0,0.07407407407407408,0,0)" xlink:href="#y"/><use transform="matrix(0.07407407407407408,0,0,0.07407407407407408,17.77777777777778,0)" xlink:href="#v"/><use transform="matrix(0.07407407407407408,0,0,0.07407407407407408,28.148148148148152,0)" xlink:href="#x"/><use transform="matrix(0.07407407407407408,0,0,0.07407407407407408,44.37037037037039,0)" xlink:href="#F"/><use transform="matrix(0.07407407407407408,0,0,0.07407407407407408,59.185185185185205,0)" xlink:href="#u"/><use transform="matrix(0.07407407407407408,0,0,0.07407407407407408,74.00000000000001,0)" xlink:href="#H"/><use transform="matrix(0.07407407407407408,0,0,0.07407407407407408,88.81481481481484,0)" xlink:href="#H"/><use transform="matrix(0.07407407407407408,0,0,0.07407407407407408,103.62962962962965,0)" xlink:href="#x"/></g><path fill="#282c33" d="M23 0v-37h61v-169l-59 37v-38l62-41h46v211h57V0H23" id="I"/><use transform="matrix(0.07407407407407408,0,0,0.07407407407407408,0,0)" xlink:href="#I" id="j"/><path fill="#282c33" d="M128 0H69L1-190h53L99-40l48-150h52" id="J"/><g id="k"><use transform="matrix(0.07407407407407408,0,0,0.07407407407407408,0,0)" xlink:href="#G"/><use transform="matrix(0.07407407407407408,0,0,0.07407407407407408,19.185185185185187,0)" xlink:href="#v"/><use transform="matrix(0.07407407407407408,0,0,0.07407407407407408,29.555555555555554,0)" xlink:href="#x"/><use transform="matrix(0.07407407407407408,0,0,0.07407407407407408,45.777777777777786,0)" xlink:href="#H"/><use transform="matrix(0.07407407407407408,0,0,0.07407407407407408,60.5925925925926,0)" xlink:href="#H"/><use transform="matrix(0.07407407407407408,0,0,0.07407407407407408,75.40740740740742,0)" xlink:href="#x"/><use transform="matrix(0.07407407407407408,0,0,0.07407407407407408,91.62962962962965,0)" xlink:href="#J"/><use transform="matrix(0.07407407407407408,0,0,0.07407407407407408,106.44444444444446,0)" xlink:href="#u"/><use transform="matrix(0.07407407407407408,0,0,0.07407407407407408,121.25925925925925,0)" xlink:href="#v"/></g><path fill="#282c33" d="M195-6C206 82 75 100 31 46c-4-6-6-13-8-21l49-6c3 16 16 24 34 25 40 0 42-37 40-79-11 22-30 35-61 35-53 0-70-43-70-97 0-56 18-96 73-97 30 0 46 14 59 34l2-30h47zm-90-29c32 0 41-27 41-63 0-35-9-62-40-62-32 0-39 29-40 63 0 36 9 62 39 62" id="K"/><g id="l"><use transform="matrix(0.07407407407407408,0,0,0.07407407407407408,0,0)" xlink:href="#D"/><use transform="matrix(0.07407407407407408,0,0,0.07407407407407408,16.222222222222225,0)" xlink:href="#r"/><use transform="matrix(0.07407407407407408,0,0,0.07407407407407408,23.629629629629633,0)" xlink:href="#K"/><use transform="matrix(0.07407407407407408,0,0,0.07407407407407408,39.85185185185187,0)" xlink:href="#A"/><use transform="matrix(0.07407407407407408,0,0,0.07407407407407408,47.25925925925927,0)" xlink:href="#r"/></g><path fill="#282c33" d="M85 4C-2 5 27-109 22-190h50c7 57-23 150 33 157 60-5 35-97 40-157h50l1 190h-47c-2-12 1-28-3-38-12 25-28 42-61 42" id="L"/><g id="m"><use transform="matrix(0.07407407407407408,0,0,0.07407407407407408,0,0)" xlink:href="#p"/><use transform="matrix(0.07407407407407408,0,0,0.07407407407407408,22.148148148148152,0)" xlink:href="#L"/><use transform="matrix(0.07407407407407408,0,0,0.07407407407407408,38.37037037037038,0)" xlink:href="#C"/><use transform="matrix(0.07407407407407408,0,0,0.07407407407407408,47.1851851851852,0)" xlink:href="#q"/><use transform="matrix(0.07407407407407408,0,0,0.07407407407407408,62.000000000000014,0)" xlink:href="#w"/><use transform="matrix(0.07407407407407408,0,0,0.07407407407407408,75.33333333333334,0)" xlink:href="#r"/><use transform="matrix(0.07407407407407408,0,0,0.07407407407407408,82.74074074074075,0)" xlink:href="#x"/><use transform="matrix(0.07407407407407408,0,0,0.07407407407407408,98.96296296296298,0)" xlink:href="#s"/><use transform="matrix(0.07407407407407408,0,0,0.07407407407407408,115.1851851851852,0)" xlink:href="#u"/></g><path fill="#282c33" d="M182-182c0 78-84 86-111 141h115V0H12c-6-101 99-100 120-180 1-22-12-31-33-32-23 0-32 14-35 34l-49-3c5-45 32-70 84-70 51 0 83 22 83 69" id="M"/><use transform="matrix(0.07407407407407408,0,0,0.07407407407407408,0,0)" xlink:href="#M" id="n"/><path fill="#282c33" d="M240-174c0 40-23 61-54 70L253 0h-59l-57-94H76V0H24v-248c93 4 217-23 216 74zM76-134c48-2 112 12 112-38 0-48-66-32-112-35v73" id="N"/><g id="o"><use transform="matrix(0.07407407407407408,0,0,0.07407407407407408,0,0)" xlink:href="#N"/><use transform="matrix(0.07407407407407408,0,0,0.07407407407407408,19.185185185185187,0)" xlink:href="#r"/><use transform="matrix(0.07407407407407408,0,0,0.07407407407407408,26.592592592592595,0)" xlink:href="#E"/><use transform="matrix(0.07407407407407408,0,0,0.07407407407407408,50.296296296296305,0)" xlink:href="#z"/><use transform="matrix(0.07407407407407408,0,0,0.07407407407407408,66.51851851851853,0)" xlink:href="#r"/><use transform="matrix(0.07407407407407408,0,0,0.07407407407407408,73.92592592592594,0)" xlink:href="#q"/><use transform="matrix(0.07407407407407408,0,0,0.07407407407407408,88.74074074074078,0)" xlink:href="#w"/><use transform="matrix(0.07407407407407408,0,0,0.07407407407407408,102.0740740740741,0)" xlink:href="#w"/><use transform="matrix(0.07407407407407408,0,0,0.07407407407407408,115.40740740740743,0)" xlink:href="#x"/></g></defs></g></svg>